<svg xmlns="http://www.w3.org/2000/svg" width="224" height="240" viewBox="-112 -232 224 240" fill="none" stroke="#1B1D4D" stroke-width="3" stroke-linecap="round" stroke-linejoin="round">
<g id="acc-corona-hojas" data-layer="head" fill="none" stroke="#1B1D4D" stroke-width="3" stroke-linecap="round" stroke-linejoin="round"><path d="M -36 -122 Q 0 -112 36 -122" fill="none" stroke="#477E60"/><path transform="rotate(-30 -29 -124)" d="M -29 -119 Q -41 -126 -33 -136 Q -21 -134 -29 -119 Z" fill="#78A77A"/><path transform="rotate(-15 -17 -124)" d="M -17 -119 Q -29 -126 -21 -136 Q -9 -134 -17 -119 Z" fill="#78A77A"/><path transform="rotate(15 18 -124)" d="M 18 -119 Q 6 -126 14 -136 Q 26 -134 18 -119 Z" fill="#78A77A"/><path transform="rotate(30 30 -124)" d="M 30 -119 Q 18 -126 26 -136 Q 38 -134 30 -119 Z" fill="#78A77A"/><ellipse cx="0" cy="-131" rx="12" ry="10" fill="#F4A044" /><path d="M 0 -141 L 1 -146" fill="none" /><path d="M 1 -145 Q 7 -153 14 -146 Q 8 -139 1 -145 Z" fill="#78A77A" /></g>
</svg>