<svg xmlns="http://www.w3.org/2000/svg" width="224" height="240" viewBox="-112 -232 224 240" fill="none" stroke="#1B1D4D" stroke-width="3" stroke-linecap="round" stroke-linejoin="round">
<g id="foot-l"><path d="M -30 -16 Q -22 -20 -13 -16 L -9 -9 Q -5 -1.5 -14 -1.5 L -31 -1.5 Q -39 -1.5 -35 -8 Z" fill="#2F79F7" /></g>
<g id="foot-r" transform="scale(-1 1)"><path d="M -30 -16 Q -22 -20 -13 -16 L -9 -9 Q -5 -1.5 -14 -1.5 L -31 -1.5 Q -39 -1.5 -35 -8 Z" fill="#2F79F7" /></g>
<g id="body"><path d="M -18 -73 C -24 -61 -27 -50 -30 -32 C -34 -12 -22 -9 0 -9 C 22 -9 34 -12 30 -32 C 27 -50 24 -61 18 -73 Z" fill="#D89A5B" /></g>
<g id="belly"><ellipse cx="0" cy="-32" rx="18" ry="13.5" fill="#FFF3E4" stroke="none"/></g>
<g id="ear-l"><ellipse cx="-40" cy="-148" rx="9" ry="11" fill="#D89A5B" stroke="#1B1D4D"/><ellipse cx="-40" cy="-148" rx="4.5" ry="6" fill="#FFD6B8" stroke="none"/></g>
<g id="ear-r"><ellipse cx="40" cy="-148" rx="9" ry="11" fill="#D89A5B" stroke="#1B1D4D"/><ellipse cx="40" cy="-148" rx="4.5" ry="6" fill="#FFD6B8" stroke="none"/></g>
<g id="head"><path d="M -17 -63 C -41 -61 -56 -69 -56 -91 L -56 -116 Q -56 -144 -30 -144 L 30 -144 Q 56 -144 56 -116 L 56 -91 C 56 -69 41 -61 17 -63 Z" fill="#D89A5B" stroke="none"/><path d="M -17 -63 C -41 -61 -56 -69 -56 -91 L -56 -116 Q -56 -144 -30 -144 L 30 -144 Q 56 -144 56 -116 L 56 -91 C 56 -69 41 -61 17 -63" fill="none" /><path d="M -41 -81 C -40 -91 -22 -89 0 -89 C 22 -89 40 -91 41 -81 C 45 -69 27 -65 0 -65 C -27 -65 -45 -69 -41 -81 Z" fill="#FFF3E4" stroke="none"/><path d="M -5 -87 Q 0 -89 5 -87 Q 7 -84 2 -82 Q 0 -81 -2 -82 Q -7 -84 -5 -87 Z" fill="#1B1D4D" stroke="none"/></g>
<g id="brow-l"><ellipse cx="-13" cy="-111" rx="3.8" ry="1.8" fill="#1B1D4D" stroke="none"/></g>
<g id="brow-r"><ellipse cx="13" cy="-111" rx="3.8" ry="1.8" fill="#1B1D4D" stroke="none"/></g>
<g id="eye-l"><ellipse cx="-23" cy="-94" rx="11" ry="11" fill="#FFFFFF" stroke="#1B1D4D"/><ellipse cx="-23" cy="-94" rx="8" ry="8" fill="#D89A5B" stroke="none"/><ellipse cx="-23" cy="-94" rx="3.7" ry="4.9" fill="#1B1D4D" stroke="none"/><ellipse cx="-25" cy="-97" rx="1.9" ry="1.9" fill="#FFFFFF" stroke="none"/></g>
<g id="eye-r"><ellipse cx="23" cy="-94" rx="11" ry="11" fill="#FFFFFF" stroke="#1B1D4D"/><ellipse cx="23" cy="-94" rx="8" ry="8" fill="#D89A5B" stroke="none"/><ellipse cx="23" cy="-94" rx="3.7" ry="4.9" fill="#1B1D4D" stroke="none"/><ellipse cx="21" cy="-97" rx="1.9" ry="1.9" fill="#FFFFFF" stroke="none"/></g>
<g id="cheek-l"><ellipse cx="-31" cy="-79" rx="6.5" ry="3.7" fill="#FFB7C5" stroke="none"/></g>
<g id="cheek-r"><ellipse cx="31" cy="-79" rx="6.5" ry="3.7" fill="#FFB7C5" stroke="none"/></g>
<g id="mouth"><path d="M -6 -75 Q 0 -68 6 -75" fill="none" /></g>
<g id="hand-l"><ellipse cx="-38" cy="-35" rx="10" ry="10" fill="#2F79F7" stroke="#1B1D4D"/></g>
<g id="hand-r"><ellipse cx="38" cy="-35" rx="10" ry="10" fill="#2F79F7" stroke="#1B1D4D"/></g>
</svg>
